<svg xmlns="http://www.w3.org/2000/svg" viewBox="0 0 892.39 334"><defs><style>.cls-1{fill:#fff;}</style></defs><title>regis1Asset 4</title><g id="Layer_2" data-name="Layer 2"><g id="Layer_1-2" data-name="Layer 1"><path class="cls-1" d="M400,176.18C400,263.34,310.42,334,200,334S0,263.34,0,176.18,89.53,18.36,200,18.36,400,89,400,176.18"/><path class="cls-1" d="M644.41,171.9c0,87.16-89.54,157.82-200,157.82s-200-70.66-200-157.82S334,14.08,444.43,14.08s200,70.66,200,157.82"/><path class="cls-1" d="M892.39,157.82c0,87.16-89.53,157.82-200,157.82s-200-70.66-200-157.82S582,0,692.41,0s200,70.66,200,157.82"/></g></g></svg>