<svg xmlns="http://www.w3.org/2000/svg" viewBox="0 0 30.13 31.85"><defs><style>.cls-1{fill:#dfeaf7;}</style></defs><title>regis1Asset 5</title><g id="Layer_2" data-name="Layer 2"><g id="Layer_1-2" data-name="Layer 1"><path class="cls-1" d="M29.08,14.3c-.46,0-.86.78-1,1.87H25.63a10.36,10.36,0,0,0-2.86-6.92l1.49-1.49c.75.58,1.47.82,1.75.54S25.9,6.92,25,6,23,4.62,22.68,5s0,1,.54,1.74L21.69,8.26A10.39,10.39,0,0,0,15.46,6V2c1.09-.14,1.88-.53,1.88-1s-1.22-1-2.73-1-2.73.47-2.73,1.05.79.85,1.88,1V6.1A10.4,10.4,0,0,0,8,8.88L5.21,6.08c.68-.87,1-1.71.63-2s-1.6.13-2.67,1.19S1.57,7.5,2,7.91s1.16,0,2-.63l2.87,2.87a10.41,10.41,0,0,0-2.07,5.43H2c-.14-1.09-.53-1.88-1-1.88s-1,1.22-1,2.73.47,2.73,1.05,2.73.85-.79,1-1.88H4.81A10.46,10.46,0,0,0,7.1,23L5.64,24.45c-.87-.68-1.7-1-2-.63s.12,1.61,1.19,2.67,2.26,1.6,2.67,1.2,0-1.17-.62-2l1.43-1.43a10.38,10.38,0,0,0,5.07,2.47l-.43,2.94c-1.1,0-1.93.26-2,.72s1.06,1.21,2.55,1.42,2.77-.07,2.86-.64-.66-1-1.72-1.25l.44-3h.16a10.34,10.34,0,0,0,6.54-2.31L23.23,26c-.68.87-.95,1.71-.63,2s1.61-.12,2.68-1.19,1.6-2.26,1.19-2.67-1.17-.05-2,.63L23,23.38a10.43,10.43,0,0,0,2.55-5.5h2.55c.13,1.09.53,1.88,1,1.88s1.05-1.22,1.05-2.73-.47-2.73-1.05-2.73"/></g></g></svg>