<svg xmlns="http://www.w3.org/2000/svg" viewBox="0 0 113.06 437.38"><defs><style>.cls-1{fill:#dfeaf7;}</style></defs><title>regis1Asset 3</title><g id="Layer_2" data-name="Layer 2"><g id="Layer_1-2" data-name="Layer 1"><path class="cls-1" d="M62,430.65c-3.68-.48-4-.81-3.91-4.46a4.19,4.19,0,0,1,0-.94c1.19-4.56-.46-9.11,0-13.67a7.54,7.54,0,0,1,.09-1.86c3-7.46,1.71-15.41,2.71-23.08,1-7.95-.61-15.6-2-23.38-1-5.58-.5-11.51-.09-17.25.44-6,2-11.85,2.29-17.81.28-5.16-.43-10.39-.77-15.59-.22-3.41-.6-6.82-.84-10.24-.34-5-.78-10.09-.89-15.14-.13-6.46.06-12.93,0-19.4q0-11.1-.22-22.21c-.06-4.21-.16-8.42-.38-12.63a37.53,37.53,0,0,0-.84-4.77l-1.08,0a9.7,9.7,0,0,0-.85,2.84c.39,14.11-1.66,28.2-.2,42.34a60.6,60.6,0,0,1-.93,18.15c-.68,3.4-.2,7-.5,10.5-.44,5-1,10.08-1.71,15.08-1,6.77.27,13.33,1,20,.93,7.8,1.33,15.67,1.73,23.53.11,2.12-.71,4.29-.94,6.45-.51,4.94-1.31,9.88-1.3,14.83,0,6.93.65,13.86,1,20.8a7.67,7.67,0,0,0,.42,3c2.44,4.65,1.33,9.29.29,14-.12.54.22,1.17.29,1.76.25,2.31.83,4.65.57,6.9-.12,1.07-1.83,1.95-3,2.71-1.76,5-7,7.35-11.77,4.92a1.16,1.16,0,0,0-.79-.21c-4.59,1.66-8.74.21-12.77-1.84a2.42,2.42,0,0,1-1.26-1.64c0-.55.72-1.28,1.3-1.59,1.94-1.05,3.95-1.94,5.93-2.89a1.54,1.54,0,0,0,.58-.38c2.48-3.36,5-6.73,7.41-10.13.34-.48.71-1.33.51-1.73-1.68-3.39-.13-6.56.57-9.76,1.06-4.82-.63-9.28-1.81-13.74-2.75-10.37-6-20.61-8.67-31-2.15-8.38-3.64-16.94-3.1-25.65a54.55,54.55,0,0,1,1.91-9.83A51.87,51.87,0,0,0,31.5,308c-1-11.45-2.9-22.67-6.7-33.54C22.54,268,20,261.58,18.41,255c-.95-3.94-3.72-5.93-6-8.56-1.87-2.14-3.8-4.22-5.68-6.36-2.9-3.3-4-7.4-4.91-11.56a9.79,9.79,0,0,1-.12-3c.51-5.11,1.13-10.21,1.6-15.32a11.33,11.33,0,0,0-.5-2.94,16.93,16.93,0,0,1-.64-3.85A122.08,122.08,0,0,0,.7,177.3c-1-7.05-1.15-14.07,1.28-21,.87-2.49.72-5.39.81-8.1Q3.44,129.35,4,110.51c.14-4.49-.26-9.06.44-13.47A53.49,53.49,0,0,1,8.21,84.35c2.95-6.86,9.15-8.77,16-10C32.51,72.78,39.64,69,43.31,60.66A5,5,0,0,0,44,58.71C43.71,53.34,43.47,48,41.16,43c-.16-.36-.66-.55-.91-.89a10.53,10.53,0,0,1-1.53-2.39,50.56,50.56,0,0,1-1.52-5.24c-.59-2.39-1.15-4.78-1.57-7.2-.1-.61.37-1.32.67-2.29l2.12,2c-1.64-6.64-1.14-12.74,2.4-18.3S49.86.18,56.52,0A18,18,0,0,1,68.1,3.7C71.57,6.32,74.18,9.72,75,14c.73,4,.72,8.12,1,12L77.1,25c.34.77.88,1.39.81,1.93-.3,2.22-.69,4.44-1.21,6.62S75.46,37.83,74.81,40a3.67,3.67,0,0,1-.63,1.48c-5,5-5.39,11.32-4.71,17.59.39,3.66,3,6.69,6.1,9.09C81,72.39,87.3,74.32,94,75.38a14.11,14.11,0,0,1,11.36,9.36c2,5.2,3.13,10.71,4.48,16.13a10.19,10.19,0,0,1,.08,4.43c-1.42,6.55.18,13,.2,19.55,0,8.28.12,16.55.42,24.81a45.6,45.6,0,0,0,1.38,9.88c1.65,6.26,1.16,12.53.68,18.83-.53,7.06-1.09,14.13-1.64,21.2-.33,4.24-1,8.49-.92,12.72s1,8.49,1.28,12.76c.26,4.48-.24,8.87-3.16,12.64-1.71,2.2-3.13,4.63-4.94,6.73a35.7,35.7,0,0,1-5,4.47c-.51.41-1.39.34-1.9.44-3.91,13.24-8,26.36-11.6,39.64-1.4,5.21-1.7,10.74-2.27,16.15a82,82,0,0,0-.78,13.71c.28,4.31,1.52,8.57,2.54,12.8,1.54,6.39.64,12.7-.15,19.05-1.65,13.29-6.28,25.81-9.82,38.62a85.79,85.79,0,0,0-2.42,10.44,28.77,28.77,0,0,0,.14,7.41c.27,2.52.43,5,.46,7.53s2.23,5,3.61,7.49c.44.78,1.4,1.24,1.94,2,1.41,1.94,2.62,3.8,5.45,4.18,1.43.19,2.73,1.84,3.9,3,.26.25,0,1.68-.46,1.9a25.37,25.37,0,0,1-6.08,2.66c-1.84.42-3.88,0-5.82,0-.35,0-.7.43-1,.66a5.93,5.93,0,0,1-6.46-.19,1.82,1.82,0,0,0-.91-.45c-3.81-.29-4-.48-4.32-4.16,0-.31-.12-.6-.21-1.07M97.5,209.53l.55.15c.55-1.66,1.56-3.32,1.56-5,0-5.44.3-11-.81-16.28-2.3-10.9-3.76-21.83-3.16-32.93a69.33,69.33,0,0,0-1-16.47c-.94-5-1.39-10.14-2.05-15.22-.35,1.21-.38,2.44-.65,3.62-1.63,7.35-3.33,14.7-5,22-1.19,5.27-1.58,10.27,1.76,15.2A25.6,25.6,0,0,1,92.12,174c1.24,6.41,2,12.92,2.94,19.38.8,5.39,1.63,10.77,2.44,16.15m-81.82.33c.37-2.79.62-5.08,1-7.34,1.17-7.29,2.47-14.56,3.57-21.86.92-6.17,1.68-12.39,5.21-17.75a10.35,10.35,0,0,0,1.63-7.57c-.4-2.61-1-5.19-1.57-7.76-.81-3.47-1.84-6.9-2.55-10.4-.78-3.83-1.29-7.71-1.91-11.57l-.64,0c-.06,1-.1,1.94-.2,2.91-.49,4.87-.95,9.76-1.53,14.63-.3,2.53-1.45,5.12-1.12,7.53,1.46,10.59.23,21-1.45,31.38-1,6.44-2.2,12.87-2.92,19.35a11.49,11.49,0,0,0,2.49,8.43"/></g></g></svg>