<?xml version="1.0" encoding="UTF-8"?>
<!DOCTYPE svg PUBLIC "-//W3C//DTD SVG 1.1//EN" "http://www.w3.org/Graphics/SVG/1.1/DTD/svg11.dtd">
<svg xmlns="http://www.w3.org/2000/svg" version="1.1" width="171px" height="171px" style="shape-rendering:geometricPrecision; text-rendering:geometricPrecision; image-rendering:optimizeQuality; fill-rule:evenodd; clip-rule:evenodd" xmlns:xlink="http://www.w3.org/1999/xlink">
<g><path style="opacity:1" fill="#fffdfd" d="M -0.5,-0.5 C 24.5,-0.5 49.5,-0.5 74.5,-0.5C 74.5,-0.166667 74.5,0.166667 74.5,0.5C 35.0259,7.47214 10.5259,30.4721 1,69.5C 0.502577,72.146 0.33591,74.8127 0.5,77.5C 0.166667,77.5 -0.166667,77.5 -0.5,77.5C -0.5,51.5 -0.5,25.5 -0.5,-0.5 Z"/></g>
<g><path style="opacity:1" fill="#ff8439" d="M 74.5,0.5 C 117.47,-1.94303 147.637,16.3903 165,55.5C 174.281,85.614 169.614,113.281 151,138.5C 123.295,168.594 90.1288,176.76 51.5,163C 16.0162,145.652 -0.98377,117.152 0.5,77.5C 0.33591,74.8127 0.502577,72.146 1,69.5C 10.5259,30.4721 35.0259,7.47214 74.5,0.5 Z"/></g>
<g><path style="opacity:1" fill="#fffbfa" d="M 115.5,25.5 C 129.315,24.7971 133.315,30.6305 127.5,43C 115.297,48.4939 109.464,44.6606 110,31.5C 111.36,28.9774 113.193,26.9774 115.5,25.5 Z"/></g>
<g><path style="opacity:1" fill="#fffbf9" d="M 79.5,42.5 C 89.1724,42.3335 98.8391,42.5002 108.5,43C 115.019,49.0196 121.685,54.853 128.5,60.5C 133.319,56.1819 137.985,51.6819 142.5,47C 150.574,46.1484 152.574,49.3151 148.5,56.5C 142.681,61.8184 137.015,67.3184 131.5,73C 129.5,73.6667 127.5,73.6667 125.5,73C 121.367,69.8689 117.534,66.3689 114,62.5C 108.833,68.3333 103.667,74.1667 98.5,80C 103.667,85.1667 108.833,90.3333 114,95.5C 114.167,96.8333 114.333,98.1667 114.5,99.5C 111.918,113.744 108.418,127.744 104,141.5C 97.3587,145.041 93.5254,143.041 92.5,135.5C 94.8296,125.198 96.6629,114.864 98,104.5C 92.684,100.018 87.5173,95.3516 82.5,90.5C 76.9194,97.2512 70.586,103.085 63.5,108C 51.8333,108.667 40.1667,108.667 28.5,108C 23.1792,103.619 23.1792,99.2853 28.5,95C 37.8333,94.6667 47.1667,94.3333 56.5,94C 68.5,80.6667 80.5,67.3333 92.5,54C 89.1667,53.3333 85.8333,53.3333 82.5,54C 76.5,60.6667 70.5,67.3333 64.5,74C 58.6868,74.1708 56.5202,71.3375 58,65.5C 65.061,57.61 72.2277,49.9433 79.5,42.5 Z"/></g>
<g><path style="opacity:1" fill="#fffcfb" d="M 74.5,0.5 C 74.5,0.166667 74.5,-0.166667 74.5,-0.5C 106.5,-0.5 138.5,-0.5 170.5,-0.5C 170.5,56.5 170.5,113.5 170.5,170.5C 113.5,170.5 56.5,170.5 -0.5,170.5C -0.5,139.5 -0.5,108.5 -0.5,77.5C -0.166667,77.5 0.166667,77.5 0.5,77.5C -0.98377,117.152 16.0162,145.652 51.5,163C 90.1288,176.76 123.295,168.594 151,138.5C 169.614,113.281 174.281,85.614 165,55.5C 147.637,16.3903 117.47,-1.94303 74.5,0.5 Z"/></g>
</svg>
