<?xml version="1.0" encoding="UTF-8"?>
<!DOCTYPE svg PUBLIC "-//W3C//DTD SVG 1.1//EN" "http://www.w3.org/Graphics/SVG/1.1/DTD/svg11.dtd">
<svg xmlns="http://www.w3.org/2000/svg" version="1.1" width="170px" height="170px" style="shape-rendering:geometricPrecision; text-rendering:geometricPrecision; image-rendering:optimizeQuality; fill-rule:evenodd; clip-rule:evenodd" xmlns:xlink="http://www.w3.org/1999/xlink">
<g><path style="opacity:1" fill="#fffdfb" d="M -0.5,-0.5 C 56.1667,-0.5 112.833,-0.5 169.5,-0.5C 169.5,56.1667 169.5,112.833 169.5,169.5C 112.833,169.5 56.1667,169.5 -0.5,169.5C -0.5,112.833 -0.5,56.1667 -0.5,-0.5 Z"/></g>
<g><path style="opacity:1" fill="#ff8439" d="M 68.5,0.5 C 112.221,-3.89783 143.721,13.4355 163,52.5C 175.736,90.6093 167.236,123.109 137.5,150C 104.143,173.456 70.1435,174.456 35.5,153C 2.90388,126.278 -6.92946,92.778 6,52.5C 18.4049,24.9006 39.2382,7.5673 68.5,0.5 Z"/></g>
<g><path style="opacity:1" fill="#ffaa77" d="M 146.5,82.5 C 145.081,83.4511 143.415,83.7845 141.5,83.5C 141.784,85.4147 141.451,87.0813 140.5,88.5C 140.5,86.5 140.5,84.5 140.5,82.5C 142.5,82.5 144.5,82.5 146.5,82.5 Z"/></g>
<g><path style="opacity:1" fill="#fffcfa" d="M 146.5,82.5 C 144.5,82.5 142.5,82.5 140.5,82.5C 140.5,84.5 140.5,86.5 140.5,88.5C 136.384,115.12 121.384,132.286 95.5,140C 60.738,145.535 36.9047,132.035 24,99.5C 17.3777,68.9153 27.5444,45.7487 54.5,30C 72.1667,22.6667 89.8333,22.6667 107.5,30C 107.957,30.414 108.291,30.914 108.5,31.5C 105.683,34.8178 102.683,37.9845 99.5,41C 75.1153,34.5688 55.9486,41.7355 42,62.5C 32.8303,84.9892 37.6636,103.823 56.5,119C 72.2487,128.582 88.2487,128.915 104.5,120C 117.879,111.075 124.879,98.5748 125.5,82.5C 123.076,82.8076 120.743,82.4742 118.5,81.5C 122.446,74.5948 127.113,68.2615 132.5,62.5C 138.393,68.3788 143.06,75.0455 146.5,82.5 Z"/></g>
<g><path style="opacity:1" fill="#fffbf8" d="M 100.5,63.5 C 108.294,63.8001 110.461,67.4667 107,74.5C 98.137,83.6973 88.9703,92.5306 79.5,101C 77.5,101.667 75.5,101.667 73.5,101C 67.3333,94.8333 61.1667,88.6667 55,82.5C 53.1667,75 56,72.1667 63.5,74C 67.6816,78.3487 72.0149,82.5154 76.5,86.5C 84.547,78.7842 92.547,71.1176 100.5,63.5 Z"/></g>
</svg>
